<svg width="228" height="228" viewBox="0 0 228 228" fill="none" xmlns="http://www.w3.org/2000/svg">
<path fill-rule="evenodd" clip-rule="evenodd" d="M228 114C228 144.235 215.989 173.231 194.61 194.61C173.231 215.989 144.235 228 114 228C83.7653 228 54.769 215.989 33.3898 194.61C12.0107 173.231 0 144.235 0 114C0 83.7653 12.0107 54.769 33.3898 33.3898C54.769 12.0107 83.7653 0 114 0C144.235 0 173.231 12.0107 194.61 33.3898C215.989 54.769 228 83.7653 228 114ZM114 71.25C111.496 71.2476 109.036 71.9048 106.867 73.1557C104.698 74.4065 102.897 76.2067 101.645 78.375C100.741 80.0547 99.5093 81.5359 98.0223 82.7307C96.5354 83.9254 94.8236 84.8095 92.9886 85.3304C91.1536 85.8514 89.2327 85.9986 87.3398 85.7634C85.4468 85.5282 83.6203 84.9154 81.9686 83.9612C80.3169 83.007 78.8736 81.7309 77.7242 80.2085C76.5749 78.6862 75.7428 76.9486 75.2775 75.0987C74.8121 73.2488 74.7229 71.3243 75.015 69.4393C75.3072 67.5543 75.9749 65.7472 76.9785 64.125C81.6841 55.9756 88.9472 49.6066 97.6414 46.0056C106.336 42.4046 115.975 41.773 125.065 44.2086C134.154 46.6442 142.186 52.011 147.915 59.4766C153.644 66.9423 156.75 76.0896 156.75 85.5C156.753 94.3438 154.013 102.971 148.909 110.193C143.805 117.415 136.587 122.878 128.25 125.827V128.25C128.25 132.029 126.749 135.654 124.076 138.326C121.404 140.999 117.779 142.5 114 142.5C110.221 142.5 106.596 140.999 103.924 138.326C101.251 135.654 99.75 132.029 99.75 128.25V114C99.75 110.221 101.251 106.596 103.924 103.924C106.596 101.251 110.221 99.75 114 99.75C117.779 99.75 121.404 98.2487 124.076 95.5763C126.749 92.9039 128.25 89.2793 128.25 85.5C128.25 81.7207 126.749 78.0961 124.076 75.4237C121.404 72.7513 117.779 71.25 114 71.25ZM114 185.25C117.779 185.25 121.404 183.749 124.076 181.076C126.749 178.404 128.25 174.779 128.25 171C128.25 167.221 126.749 163.596 124.076 160.924C121.404 158.251 117.779 156.75 114 156.75C110.221 156.75 106.596 158.251 103.924 160.924C101.251 163.596 99.75 167.221 99.75 171C99.75 174.779 101.251 178.404 103.924 181.076C106.596 183.749 110.221 185.25 114 185.25Z" fill="#00043C"/>
<circle cx="114" cy="172" r="16" fill="#02ABA1"/>
</svg>
